<!--?xml version="1.0" standalone="no"?-->
              <svg id="sw-js-blob-svg" viewBox="0 0 100 100" xmlns="http://www.w3.org/2000/svg" version="1.1">
                    <defs> 
                        <linearGradient id="sw-gradient" x1="0" x2="1" y1="1" y2="0">
                            <stop id="stop1" stop-color="rgba(73.96, 38.231, 21.322, 1)" offset="0%"></stop>
                            <stop id="stop2" stop-color="rgba(217, 98, 54, 1)" offset="100%"></stop>
                        </linearGradient>
                    </defs>
                <path fill="url(#sw-gradient)" d="M19,-30.8C25.4,-25.5,31.8,-21.5,33.9,-15.8C36,-10.1,33.8,-2.8,32.5,4.5C31.2,11.8,30.8,19.1,27.8,25.9C24.8,32.7,19,39.1,12.2,40.8C5.3,42.5,-2.8,39.7,-10.9,37.2C-19,34.8,-27.2,32.7,-33.3,27.7C-39.5,22.7,-43.5,14.8,-43,7.2C-42.5,-0.3,-37.3,-7.5,-33.5,-15.2C-29.8,-22.9,-27.5,-31.1,-22.2,-36.9C-16.8,-42.8,-8.4,-46.3,-1.1,-44.6C6.3,-43,12.6,-36.2,19,-30.8Z" width="100%" height="100%" transform="translate(50 50)" stroke-width="0" style="transition: all 0.3s ease 0s;" stroke="url(#sw-gradient)"></path>
              </svg>